<svg xmlns="http://www.w3.org/2000/svg" fill="none" viewBox="0 0 24 24">
  <defs>
    <linearGradient id="brainGradient" x1="0%" y1="0%" x2="100%" y2="100%">
      <stop offset="0%" style="stop-color:#00FFFF;stop-opacity:1" />
      <stop offset="100%" style="stop-color:#FF00FF;stop-opacity:1" />
    </linearGradient>
    <filter id="neuralGlow">
      <feGaussianBlur stdDeviation="1" result="coloredBlur"/>
      <feMerge> 
        <feMergeNode in="coloredBlur"/>
        <feMergeNode in="SourceGraphic"/>
      </feMerge>
    </filter>
  </defs>
  
  <!-- Brain outline -->
  <path d="M12 2C8.5 2 6 4.5 6 8c0 1.5.5 3 1.5 4.2C6.8 13.5 6 15.2 6 17c0 2.8 2.2 5 5 5h2c2.8 0 5-2.2 5-5 0-1.8-.8-3.5-1.5-4.8C17.5 11 18 9.5 18 8c0-3.5-2.5-6-6-6z" 
        stroke="url(#brainGradient)" 
        stroke-width="1.5" 
        fill="none" 
        filter="url(#neuralGlow)"/>
  
  <!-- Neural pathways -->
  <g stroke="url(#brainGradient)" stroke-width="1" fill="none" opacity="0.7">
    <path d="M9 7c1 0 2 1 3 1s2-1 3-1"/>
    <path d="M8 10c1.5 0 2.5 1 4 1s2.5-1 4-1"/>
    <path d="M9 13c1 0 2 1 3 1s2-1 3-1"/>
    <path d="M10 16c.5 0 1 .5 2 .5s1.5-.5 2-.5"/>
  </g>
  
  <!-- Neural nodes -->
  <g fill="url(#brainGradient)" filter="url(#neuralGlow)">
    <circle cx="9" cy="7" r="1"/>
    <circle cx="15" cy="7" r="1"/>
    <circle cx="8" cy="10" r="0.8"/>
    <circle cx="16" cy="10" r="0.8"/>
    <circle cx="12" cy="13" r="1"/>
    <circle cx="10" cy="16" r="0.8"/>
    <circle cx="14" cy="16" r="0.8"/>
  </g>
</svg>