<svg xmlns="http://www.w3.org/2000/svg" fill="none" viewBox="0 0 24 24">
  <defs>
    <linearGradient id="networkGradient" x1="0%" y1="0%" x2="100%" y2="100%">
      <stop offset="0%" style="stop-color:#00FFFF;stop-opacity:1" />
      <stop offset="50%" style="stop-color:#0066FF;stop-opacity:1" />
      <stop offset="100%" style="stop-color:#FF00FF;stop-opacity:1" />
    </linearGradient>
    <radialGradient id="nodeGradient" cx="50%" cy="50%" r="50%">
      <stop offset="0%" style="stop-color:#FFFFFF;stop-opacity:1" />
      <stop offset="100%" style="stop-color:#00FFFF;stop-opacity:1" />
    </radialGradient>
    <filter id="networkGlow">
      <feGaussianBlur stdDeviation="1" result="coloredBlur"/>
      <feMerge> 
        <feMergeNode in="coloredBlur"/>
        <feMergeNode in="SourceGraphic"/>
      </feMerge>
    </filter>
  </defs>
  
  <!-- Network connections -->
  <g stroke="url(#networkGradient)" stroke-width="1.2" fill="none" opacity="0.7" filter="url(#networkGlow)">
    <!-- Layer 1 to Layer 2 -->
    <line x1="4" y1="6" x2="12" y2="4"/>
    <line x1="4" y1="6" x2="12" y2="12"/>
    <line x1="4" y1="6" x2="12" y2="20"/>
    <line x1="4" y1="18" x2="12" y2="4"/>
    <line x1="4" y1="18" x2="12" y2="12"/>
    <line x1="4" y1="18" x2="12" y2="20"/>
    
    <!-- Layer 2 to Layer 3 -->
    <line x1="12" y1="4" x2="20" y2="8"/>
    <line x1="12" y1="4" x2="20" y2="16"/>
    <line x1="12" y1="12" x2="20" y2="8"/>
    <line x1="12" y1="12" x2="20" y2="16"/>
    <line x1="12" y1="20" x2="20" y2="8"/>
    <line x1="12" y1="20" x2="20" y2="16"/>
  </g>
  
  <!-- Neural nodes -->
  <g filter="url(#networkGlow)">
    <!-- Input layer -->
    <circle cx="4" cy="6" r="2" fill="url(#nodeGradient)" stroke="url(#networkGradient)" stroke-width="1"/>
    <circle cx="4" cy="18" r="2" fill="url(#nodeGradient)" stroke="url(#networkGradient)" stroke-width="1"/>
    
    <!-- Hidden layer -->
    <circle cx="12" cy="4" r="1.8" fill="url(#nodeGradient)" stroke="url(#networkGradient)" stroke-width="1"/>
    <circle cx="12" cy="12" r="1.8" fill="url(#nodeGradient)" stroke="url(#networkGradient)" stroke-width="1"/>
    <circle cx="12" cy="20" r="1.8" fill="url(#nodeGradient)" stroke="url(#networkGradient)" stroke-width="1"/>
    
    <!-- Output layer -->
    <circle cx="20" cy="8" r="2" fill="url(#nodeGradient)" stroke="url(#networkGradient)" stroke-width="1"/>
    <circle cx="20" cy="16" r="2" fill="url(#nodeGradient)" stroke="url(#networkGradient)" stroke-width="1"/>
  </g>
  
  <!-- Data flow indicators -->
  <g fill="url(#networkGradient)" opacity="0.8">
    <circle cx="8" cy="8" r="0.8">
      <animate attributeName="opacity" values="0;1;0" dur="2s" repeatCount="indefinite"/>
    </circle>
    <circle cx="16" cy="10" r="0.8">
      <animate attributeName="opacity" values="0;1;0" dur="2s" begin="0.5s" repeatCount="indefinite"/>
    </circle>
  </g>
</svg>